<?xml version="1.0" encoding="utf-8"?>
<!-- Generator: Adobe Illustrator 16.0.0, SVG Export Plug-In . SVG Version: 6.00 Build 0)  -->
<!DOCTYPE svg PUBLIC "-//W3C//DTD SVG 1.1//EN" "http://www.w3.org/Graphics/SVG/1.1/DTD/svg11.dtd">
<svg version="1.1" id="Calque_1" xmlns="http://www.w3.org/2000/svg" xmlns:xlink="http://www.w3.org/1999/xlink" x="0px" y="0px"
	 width="63px" height="48px" viewBox="0 33.25 63 48" enable-background="new 0 33.25 63 48" xml:space="preserve">
<path fill="#2C2C2C" d="M38.18,48.963c-6.643,0-12.028,5.386-12.028,12.029c0,6.642,5.385,12.028,12.028,12.028
	c6.642,0,12.028-5.386,12.028-12.028C50.207,54.349,44.821,48.963,38.18,48.963L38.18,48.963z"/>
<path fill="#2C2C2C" d="M18.333,38.819v-0.466c0-1.155-0.937-2.092-2.091-2.092h-3.755c-1.155,0-2.092,0.937-2.092,2.092v0.466
	H18.333z"/>
<path fill="#2C2C2C" d="M57.646,40.073h-6.381c-2.092,0-2.092-6.489-4.185-6.489H29.277c-2.092,0-2.092,6.489-4.184,6.489H5.353
	c-2.887,0-5.229,2.342-5.229,5.229v30.115c0,2.889,2.342,5.23,5.229,5.229h52.293c2.888,0,5.229-2.342,5.229-5.229V45.303
	C62.876,42.416,60.534,40.073,57.646,40.073z M38.18,76.68c-8.664,0-15.688-7.025-15.688-15.688s7.025-15.688,15.688-15.688
	c8.662,0,15.688,7.025,15.688,15.688C53.867,69.654,46.842,76.68,38.18,76.68z"/>
</svg>
