<?xml version="1.0" encoding="utf-8"?>
<!-- Generator: Adobe Illustrator 16.0.0, SVG Export Plug-In . SVG Version: 6.00 Build 0)  -->
<!DOCTYPE svg PUBLIC "-//W3C//DTD SVG 1.1//EN" "http://www.w3.org/Graphics/SVG/1.1/DTD/svg11.dtd">
<svg version="1.1" id="Calque_1" xmlns="http://www.w3.org/2000/svg" xmlns:xlink="http://www.w3.org/1999/xlink" x="0px" y="0px"
	 width="44.25px" height="51px" viewBox="0 0 44.25 51" enable-background="new 0 0 44.25 51" xml:space="preserve">
<g>
	<path fill="#2C2C2C" d="M17.732,29.803c-0.024-0.025-2.271-3.281-3.109-4.391c-1.744-2.308-2.647-5.552-2.854-5.8
		c2.452-1.709,7.243-3.855,7.512-6.938c0.341-3.979-6.402-12.3-7.695-12.375C8.048,0.337,1.573,6.325,0.805,8.134
		c-1.426,3.741-0.719,7.224,1.732,12.263c3.122,7.498,14.719,21.718,21.354,26.185c4.394,3.367,7.601,4.689,11.428,3.893
		c1.779-0.338,8.207-5.611,8.854-9.182c0.158-1.324-7.315-10.092-11.182-10.441c-3.003-0.273-5.88,4.215-7.941,6.412
		c-0.206-0.262-1.963-1.633-3.852-3.805C20.27,32.41,18.805,31.025,17.732,29.803z"/>
</g>
</svg>
