<svg xmlns="http://www.w3.org/2000/svg" width="288.667" height="578.333" viewBox="0 0 288.667 578.333"><path stroke="#000" stroke-width="2.832" stroke-miterlimit="10" d="M144.667 2.318c78.978 0 143 64.022 143 143s-64.022 143-143 143-143-64.022-143-143 64.022-143 143-143z" fill="none"/><path d="M169.193 194.596v-53.964l-16.718-4.18v58.144h16.718zm8.363-56.438v56.438h16.723V129.33l-8.403-5.037-8.32 13.865zm-75.25 26.457v29.98h16.723v-40.794l-13.77 13.77-2.953-2.955zm25.084 29.98h16.722v-60.234l-4.515-1.126-12.207 12.206v49.156zm9.642-70.622l34.155 8.535 11.824-19.697 10.717 6.433.552-33.34-29.16 16.187 10.716 6.43-8.633 14.39-32.734-8.19-35.117 35.117 5.908 5.908 31.772-31.772zM211 202.955v8.363H77.224V77.542h8.36v125.414H211z"/><path fill="#F7B232" stroke="#000" stroke-width="2.832" stroke-miterlimit="10" d="M144.667 291.333c78.978 0 143 64.022 143 143 0 78.98-64.022 143-143 143s-143-64.02-143-143c0-78.977 64.022-143 143-143z"/><path d="M169.193 483.612v-53.965l-16.718-4.182v58.146h16.718zm8.363-56.438v56.438h16.723v-65.266l-8.403-5.037-8.32 13.864zm-75.25 26.455v29.98h16.723v-40.794l-13.77 13.768-2.953-2.955zm25.084 29.982h16.722v-60.236l-4.515-1.127-12.207 12.206v49.156zm9.642-70.624l34.155 8.534 11.824-19.695 10.717 6.432.552-33.34-29.16 16.186 10.716 6.43-8.633 14.39-32.734-8.188-35.117 35.117 5.908 5.906 31.772-31.772zM211 491.97v8.362H77.224V366.557h8.36V491.97H211z"/></svg>