<svg xmlns="http://www.w3.org/2000/svg" width="288.667" height="578.333" viewBox="0 0 288.667 578.333"><path stroke="#000" stroke-width="2.832" stroke-miterlimit="10" d="M144.667 2.318c78.978 0 143 64.022 143 143s-64.022 143-143 143-143-64.022-143-143 64.022-143 143-143z" fill="none"/><path d="M206.064 171.663H82.337V86.606h123.727v85.057zm-61.868-91.31c1.144 0 2.065.933 2.065 2.075 0 1.143-.923 2.065-2.064 2.065s-2.066-.93-2.066-2.065c0-1.15.924-2.074 2.066-2.074m59.794-2.337H84.41c-3.93 0-7.104 3.183-7.104 7.105v84.466c0 3.923 3.175 7.105 7.105 7.105h44.022c0 23.767-7.83 29.21-16.178 29.21v5.903h63.894v-5.903c-8.355 0-16.178-5.438-16.178-29.21h44.012c3.93 0 7.105-3.183 7.105-7.105V85.123c0-3.923-3.17-7.106-7.097-7.106"/><path fill="#F7B232" stroke="#000" stroke-width="2.832" stroke-miterlimit="10" d="M144.667 290.317c78.978 0 143 64.02 143 143s-64.022 143-143 143-143-64.02-143-143 64.022-143 143-143z"/><path d="M206.064 459.663H82.337v-85.057h123.727v85.057zm-61.868-91.31c1.144 0 2.065.933 2.065 2.073 0 1.144-.923 2.066-2.064 2.066s-2.066-.93-2.066-2.066c0-1.15.924-2.073 2.066-2.073m59.794-2.336H84.41c-3.93 0-7.104 3.183-7.104 7.104v84.468c0 3.922 3.175 7.105 7.105 7.105h44.022c0 23.766-7.83 29.21-16.178 29.21v5.9h63.894v-5.9c-8.355 0-16.178-5.44-16.178-29.21h44.012c3.93 0 7.105-3.184 7.105-7.105V373.12c0-3.92-3.17-7.103-7.097-7.103"/></svg>