<?xml version="1.0" encoding="utf-8"?>
<!-- Generator: Adobe Illustrator 16.0.0, SVG Export Plug-In . SVG Version: 6.00 Build 0)  -->
<!DOCTYPE svg PUBLIC "-//W3C//DTD SVG 1.1//EN" "http://www.w3.org/Graphics/SVG/1.1/DTD/svg11.dtd">
<svg version="1.1" id="Calque_1" xmlns="http://www.w3.org/2000/svg" xmlns:xlink="http://www.w3.org/1999/xlink" x="0px" y="0px"
	 width="288.667px" height="578.333px" viewBox="0 0 288.667 578.333" enable-background="new 0 0 288.667 578.333"
	 xml:space="preserve">
<path fill="none" stroke="#000000" stroke-width="2.8317" stroke-miterlimit="10" d="M144.667,2.318c78.978,0,143,64.022,143,143
	s-64.022,143-143,143s-143-64.022-143-143S65.689,2.318,144.667,2.318z"/>
<g>
	<path d="M206.064,171.663H82.337V86.606h123.727V171.663z M144.196,80.354c1.144,0,2.065,0.932,2.065,2.074
		c0,1.143-0.924,2.065-2.065,2.065s-2.066-0.93-2.066-2.065C142.129,81.278,143.054,80.354,144.196,80.354 M203.99,78.017H84.411
		c-3.93,0-7.105,3.183-7.105,7.105v84.466c0,3.923,3.175,7.105,7.105,7.105h44.021c0,23.767-7.83,29.21-16.178,29.21v5.903h63.894
		v-5.903c-8.355,0-16.178-5.438-16.178-29.21h44.012c3.93,0,7.105-3.183,7.105-7.105V85.123
		C211.087,81.2,207.917,78.017,203.99,78.017"/>
</g>
<path fill="#F7B232" stroke="#000000" stroke-width="2.8317" stroke-miterlimit="10" d="M144.667,290.317
	c78.978,0,143,64.021,143,143s-64.022,143-143,143s-143-64.021-143-143S65.689,290.317,144.667,290.317z"/>
<g>
	<path d="M206.064,459.663H82.337v-85.057h123.727V459.663z M144.196,368.353c1.144,0,2.065,0.933,2.065,2.073
		c0,1.144-0.924,2.066-2.065,2.066s-2.066-0.931-2.066-2.066C142.129,369.277,143.054,368.353,144.196,368.353 M203.99,366.017
		H84.411c-3.93,0-7.105,3.183-7.105,7.104v84.467c0,3.922,3.175,7.105,7.105,7.105h44.021c0,23.766-7.83,29.209-16.178,29.209v5.902
		h63.894v-5.902c-8.355,0-16.178-5.438-16.178-29.209h44.012c3.93,0,7.105-3.184,7.105-7.105v-84.467
		C211.087,369.2,207.917,366.017,203.99,366.017"/>
</g>
</svg>
