<?xml version="1.0" encoding="utf-8"?>
<!-- Generator: Adobe Illustrator 16.0.0, SVG Export Plug-In . SVG Version: 6.00 Build 0)  -->
<!DOCTYPE svg PUBLIC "-//W3C//DTD SVG 1.1//EN" "http://www.w3.org/Graphics/SVG/1.1/DTD/svg11.dtd">
<svg version="1.1" id="Calque_1" xmlns="http://www.w3.org/2000/svg" xmlns:xlink="http://www.w3.org/1999/xlink" x="0px" y="0px"
	 width="288.667px" height="578.333px" viewBox="0 0 288.667 578.333" enable-background="new 0 0 288.667 578.333"
	 xml:space="preserve">
<path fill="none" stroke="#000000" stroke-width="2.8317" stroke-miterlimit="10" d="M144.667,2.318c78.978,0,143,64.022,143,143
	s-64.022,143-143,143s-143-64.022-143-143S65.689,2.318,144.667,2.318z"/>
<path d="M116.121,121.297l23.744,30.449c0.492,2.576,2.714,4.505,5.425,4.482c3.045-0.027,5.494-2.502,5.465-5.55
	c-0.021-2.512-1.715-4.598-4.014-5.253L116.121,121.297z M143.837,98.79c-29.04,0.249-52.436,24.043-52.188,53.084
	c0.13,14.741,6.313,28.008,16.186,37.496l4.783-4.868c-8.604-8.243-13.979-19.795-14.092-32.671
	c-0.221-25.317,20.037-45.944,45.354-46.166c25.304-0.221,45.948,20.038,46.167,45.355c0.113,13.253-5.401,25.218-14.308,33.653
	l4.912,4.783c10.136-9.701,16.399-23.381,16.271-38.479C196.671,121.937,172.863,98.54,143.837,98.79z"/>
<path fill="#F7B232" stroke="#000000" stroke-width="2.8317" stroke-miterlimit="10" d="M144.667,290.875
	c78.978,0,143,64.021,143,143s-64.022,143-143,143s-143-64.021-143-143S65.689,290.875,144.667,290.875z"/>
<path d="M116.121,409.854l23.744,30.449c0.492,2.576,2.714,4.504,5.425,4.482c3.045-0.027,5.494-2.502,5.465-5.551
	c-0.021-2.514-1.715-4.6-4.014-5.254L116.121,409.854z M143.837,387.347c-29.04,0.249-52.436,24.043-52.188,53.083
	c0.13,14.74,6.313,28.01,16.186,37.496l4.783-4.867c-8.604-8.242-13.979-19.795-14.092-32.672
	c-0.221-25.316,20.037-45.942,45.354-46.165c25.304-0.222,45.948,20.038,46.167,45.354c0.113,13.254-5.401,25.219-14.308,33.652
	l4.912,4.783c10.136-9.701,16.399-23.383,16.271-38.479C196.671,410.493,172.863,387.097,143.837,387.347z"/>
</svg>
