<svg xmlns="http://www.w3.org/2000/svg" width="288.667" height="578.333" viewBox="0 0 288.667 578.333"><path stroke="#000" stroke-width="2.832" stroke-miterlimit="10" d="M144.667 2.318c78.978 0 143 64.022 143 143s-64.022 143-143 143-143-64.022-143-143 64.022-143 143-143z" fill="none"/><path d="M116.12 121.297l23.745 30.45c.492 2.575 2.714 4.504 5.425 4.48 3.045-.026 5.494-2.5 5.465-5.55-.02-2.51-1.715-4.597-4.014-5.252l-30.62-24.128zm27.717-22.507c-29.04.25-52.436 24.043-52.188 53.084.13 14.74 6.312 28.008 16.185 37.496l4.783-4.868c-8.604-8.243-13.98-19.795-14.092-32.67-.22-25.318 20.037-45.945 45.354-46.167 25.304-.22 45.948 20.038 46.167 45.355.113 13.253-5.4 25.218-14.308 33.653l4.91 4.783c10.137-9.7 16.4-23.38 16.272-38.48-.25-29.04-24.06-52.436-53.085-52.186z"/><path fill="#F7B232" stroke="#000" stroke-width="2.832" stroke-miterlimit="10" d="M144.667 290.875c78.978 0 143 64.02 143 143s-64.022 143-143 143-143-64.02-143-143 64.022-143 143-143z"/><path d="M116.12 409.854l23.745 30.45c.492 2.575 2.714 4.503 5.425 4.48 3.045-.026 5.494-2.5 5.465-5.55-.02-2.514-1.715-4.6-4.014-5.254l-30.62-24.126zm27.717-22.507c-29.04.25-52.436 24.043-52.188 53.083.13 14.74 6.312 28.01 16.185 37.496l4.783-4.867c-8.604-8.243-13.98-19.796-14.092-32.673-.22-25.316 20.037-45.942 45.354-46.165 25.304-.222 45.948 20.038 46.167 45.354.113 13.254-5.4 25.22-14.308 33.652l4.91 4.783c10.137-9.7 16.4-23.382 16.272-38.478-.25-29.04-24.06-52.435-53.085-52.185z"/></svg>