<svg xmlns="http://www.w3.org/2000/svg" width="288.667" height="578.333" viewBox="0 0 288.667 578.333"><path stroke="#000" stroke-width="2.832" stroke-miterlimit="10" d="M144.667 2.318c78.978 0 143 64.022 143 143s-64.022 143-143 143-143-64.022-143-143 64.022-143 143-143z" fill="none"/><path d="M195.498 150.52c-18.48-18.478-37.426-27.3-56.285-26.235-28.5 1.612-47.85 25.526-48.042 25.768l-8.572-6.79c.9-1.14 22.443-27.936 55.883-29.888 22.163-1.303 43.94 8.603 64.75 29.413l-7.732 7.732zM143.13 179.806c-12.768 0-23.155-10.39-23.155-23.155S130.362 133.5 143.13 133.5c12.767 0 23.155 10.386 23.155 23.153s-10.388 23.156-23.154 23.156zm0-35.374c-6.74 0-12.22 5.482-12.22 12.22s5.48 12.218 12.22 12.218 12.22-5.48 12.22-12.22c0-6.736-5.48-12.218-12.22-12.218z"/><path fill="#F7B232" stroke="#000" stroke-width="2.832" stroke-miterlimit="10" d="M144.667 290.318c78.978 0 143 64.022 143 143s-64.022 143-143 143-143-64.02-143-143 64.022-143 143-143z"/><path d="M195.498 438.52c-18.48-18.48-37.426-27.3-56.285-26.234-28.5 1.61-47.85 25.525-48.042 25.768l-8.572-6.79c.9-1.138 22.443-27.935 55.883-29.888 22.163-1.303 43.94 8.604 64.75 29.414l-7.732 7.73zM143.13 467.805c-12.768 0-23.155-10.39-23.155-23.154s10.387-23.15 23.156-23.15c12.767 0 23.155 10.386 23.155 23.15s-10.388 23.155-23.154 23.155zm0-35.373c-6.74 0-12.22 5.482-12.22 12.22 0 6.737 5.48 12.218 12.22 12.218s12.22-5.48 12.22-12.22c0-6.735-5.48-12.218-12.22-12.218z"/></svg>