<svg xmlns="http://www.w3.org/2000/svg" width="75" height="75" viewBox="0 0 75 75"><path fill="#2C2C2C" d="M51.562 65.625V35.37l-9.373-2.343v32.598h9.372zm4.688-31.64v31.64h9.375v-36.59l-4.71-2.824-4.665 7.774zm-42.188 14.83v16.81h9.376v-22.87l-7.72 7.718-1.656-1.657zm14.063 16.81H37.5v-33.77l-2.53-.632-6.845 6.843v27.56zM33.53 26.03l19.15 4.786 6.63-11.043 6.007 3.606.31-18.692-16.35 9.074 6.01 3.605-4.84 8.067-18.35-4.59-19.69 19.687 3.312 3.313L33.53 26.03zM75 70.313V75H0V0h4.688v70.312H75z"/></svg>