<svg xmlns="http://www.w3.org/2000/svg" width="60.667" height="50.667" viewBox="0 0 60.667 50.667"><g fill="#2C2C2C"><path d="M5.692 50.387h8.27V19.463H.237zM60.432 24.258c0-3.307-2.646-3.807-2.646-3.807h-17.2s-1.16-1.485-.167-4.628 1.16-7.77.33-9.756C39.926 4.082 38.437.442 34.633.28c-2.23.34-2.978 2.145-2.978 2.145v7.28s-7.108 12.897-8.1 13.06c-.995.168-4.954.665-4.954.665v22.82h1.15s8.432 4.134 10.084 4.134h20.838s2.977-.662 2.977-3.967c0-2.148-1.82-3.477-1.82-3.477s4.468-.328 4.468-4.132c0-1.562-2.15-2.978-2.15-2.978s4.135-.828 3.97-4.3c-.33-2.147-1.49-3.308-1.49-3.308s3.804-.658 3.804-3.964z"/></g></svg>