<svg xmlns="http://www.w3.org/2000/svg" viewBox="0 0 595.3 841.9" enable-background="new 0 0 595.3 841.9"><path d="M513.4 263.1c-13.6-33.6-37.8-72.4-53.5-66.1-14.7 6.3-24.1 11.5-33.6 10.5-9.4-1-25.2-3.1-45.1-15.7-4.2-2.1-23.1-16.8-34.6-16.8-12.6 1-25.2 5.2-23.1 8.4 3.1 5.2 27.3 10.5 32.5 16.8 4.2 4.2 12.6 13.6 15.7 23.1 3.1 9.4 5.2 26.2 18.9 43 5.2 6.3 2.1 23.1-11.5 33.6-13.6 9.4-34.6 4.2-46.2-7.3-12.6-12.6-25.2-35.7-31.5-40.9-6.3-6.3-22-3.1-29.4 1-11.5 7.3-49.3 34.6-71.4 50.4-11.5 8.4-39.9 36.7-46.2 44.1-6.3 7.3-25.2 32.5-23.1 42 2.1 9.4 9.4 18.9 16.8 17.8 7.3 0 11.5-4.2 18.9-10.5 7.3-6.3 35.7-37.8 40.9-36.7 4.2 0 9.4 5.2 2.1 13.6-3.1 4.2-32.5 30.4-37.8 36.7-2.1 3.1-10.5 13.6-6.3 22 4.2 7.3 12.6 16.8 18.9 15.7 6.3-1 9.4-4.2 17.8-10.5 8.4-7.3 35.7-38.8 40.9-38.8 5.2 0 7.3 4.2 4.2 11.5-3.1 7.3-35.7 35.7-39.9 40.9-4.2 5.2-3.1 11.5-1 14.7 2.1 3.1 17.8 7.3 25.2 5.2 7.3-2.1 13.6-13.6 23.1-14.7 4.2 0 6.3 4.2 1 10.5s-6.3 5.2-7.3 9.4-1 13.6 2.1 16.8c5.2 5.2 14.7 11.5 19.9 7.3 7.3-5.2 14.7-10.5 12.6-14.7s-7.3-11.5 3.1-24.1c6.3-7.3 9.4-4.2 12.6-9.4 4.2-6.3-17.8-25.2 3.1-42 16.8-12.6 34.6 4.2 38.8 3.1 4.2-1-6.3-25.2 19.9-32.5 14.7-4.2 34.6 4.2 40.9 17.8 4.2 9.4 7.3-22 25.2-24.1 16.8-2.1 32.5 3.1 32.5 3.1s12.6-9.4 15.7-12.6c12.6-8.4 31.5-13.6 40.9-19.9 13-4 10.9-48.1-2.7-81.7zM113.4 313.5c17.8 4.2 42 2.1 49.3-3.1 27.3-23.1 58.8-47.2 85-63 26.2-16.8 38.8-17.8 48.3-11.5 9.4 6.3 12.6-22 21-22 0 0-3.1 30.4 4.2 38.8 6.3 6.3 9.4 21 25.2 31.5 6.3 4.2 12.6 5.2 22 0 8.4-4.2 8.4-8.4 8.4-8.4s-16.8-21-16.8-23.1c-1-2.1-7.3-30.4-14.7-36.7-7.3-6.3-57.7-26.2-60.9-26.2s-17.8-3.1-25.2-1c-7.3 2.1-56.7 22-67.2 22-9.4 1-45.1-12.6-47.2-14.7s-17.8 4.2-29.4 17.8-21 29.4-32.5 53.5c-9.4 21-9.4 68.2-5.2 71.4 4.2 3.1 34.6 18.9 38.8 26.2 1 3.1 0-11.5 22-30.4 4.3-5.4-12.5-8.5-25.1-21.1zM431.5 389.1c-9.4 4.2-16.8 15.7-13.6 28.3 1 5.2-1 12.6-7.3 2.1-9.4-15.7-17.8-25.2-34.6-21-16.8 5.2-21 18.9-13.6 30.4 3.1 5.2-1 12.6-7.3 5.2-8.4-11.5-26.2-17.8-35.7-11.5-9.4 7.3-11.5 16.8-7.3 27.3s17.8 24.1 12.6 21c-6.3-3.1-13.6-8.4-21-3.1-7.3 5.2-6.3 19.9-4.2 26.2 2.1 6.3 7.3 9.4 15.7 16.8 8.4 6.3 25.2 16.8 36.7 7.3 12.6-10.5 1-19.9 3.1-23.1 2.1-2.1 12.6 14.7 29.4 1 13.6-11.5 1-25.2 3.1-26.2 1-1 16.8 19.9 36.7 4.2 24.1-18.9-2.1-34.6 2.1-37.8 5.2-3.1 15.7 26.2 35.7 8.4 14.7-13.6 15.7-29.4 5.2-43-7.4-10.4-18.9-19.9-35.7-12.5z"/></svg>