<svg xmlns="http://www.w3.org/2000/svg" width="63" height="48" viewBox="0 33.25 63 48" enable-background="new 0 33.25 63 48"><path fill="#2C2C2C" d="M38.18 48.963c-6.643 0-12.028 5.386-12.028 12.03 0 6.64 5.385 12.027 12.028 12.027 6.642 0 12.028-5.386 12.028-12.028 0-6.643-5.387-12.03-12.028-12.03zM18.333 38.82v-.467c0-1.155-.937-2.092-2.09-2.092h-3.756c-1.155 0-2.092.938-2.092 2.093v.466h7.938zM57.646 40.073h-6.38c-2.093 0-2.093-6.49-4.186-6.49H29.277c-2.092 0-2.092 6.49-4.184 6.49H5.353c-2.887 0-5.23 2.342-5.23 5.23v30.114c0 2.89 2.343 5.23 5.23 5.23h52.293c2.888 0 5.23-2.343 5.23-5.23V45.303c0-2.887-2.342-5.23-5.23-5.23zM38.18 76.68c-8.664 0-15.688-7.025-15.688-15.688s7.025-15.688 15.688-15.688c8.662 0 15.688 7.025 15.688 15.688 0 8.662-7.026 15.688-15.688 15.688z"/></svg>