<svg xmlns="http://www.w3.org/2000/svg" viewBox="0 0 595.3 841.9" enable-background="new 0 0 595.3 841.9"><path d="M596.1 489.8l-41.2-24.2c1.4-16.6-.7-32.8-5.5-47.8l34.5-32.9-23.8-37.7-44.5 17.1c-11.6-10.8-25.5-19.6-40.8-25.4l-4.2-47.5-44.3-4.9-14.4 45.5c-16.3 2.4-31.6 7.9-45.3 16l-39.8-26.3-31.4 31.6 26.6 39.6c-8 13.7-13.4 28.9-15.7 45.5l-45.5 14.7 5.1 44.3 47.5 3.9c5.9 15.1 14.6 29 25.7 40.7l-16.8 44.6 37.8 23.6 32.7-34.8c7.6 2.4 15.4 4 23.6 5 8.2.9 16.3 1 24.2.3l24.4 41 42-14.8-6.8-47.2c13.3-9 24.9-20.6 33.9-34.2l47.2 6.5 14.8-42.2zm-170 2.5l-20.1-.9-9.7-17.6-11.8-16.3 7.7-18.6 5.4-19.4 19.3-5.6 18.6-7.8 16.4 11.7 17.7 9.5 1 20.1 3.6 19.8-15.1 13.4-13.1 15.2-19.9-3.5zM268.6 201l-29.2 10.5 4.2 28.7 31 1.6c4.1 9.7 10.1 18.5 17.5 25.9l-10 29.3 25 14.6 20.6-23.2c5 1.4 10.1 2.4 15.4 2.7 5.4.4 10.5.3 15.7-.3l16.7 26.1 27-10.5-5.3-30.5c8.5-6.1 15.7-13.9 21.4-22.9l30.8 3.2 8.6-27.7-27.2-14.9c.5-10.9-1.1-21.2-4.5-30.8l21.7-22.1-16.2-24-28.6 12c-7.8-6.8-16.9-12.3-27-15.7l-3.7-30.8-28.9-2.3-8.4 29.8c-10.5 1.8-20.4 5.8-29.2 11.2l-26.3-16.3-19.9 21.4 18.1 25.2c-4.9 9-8.2 19.1-9.3 29.8zm55.9-1.4l3.1-12.7 12.5-4 11.9-5.5 10.8 7.3 11.7 5.9 1.1 13 2.7 12.8-9.5 9-8.3 10.1-12.9-1.8-13.1-.2-6.7-11.3-8-10.4 4.7-12.2zM273 417.8l11.1-35.9-35.3-19.2c.6-14-1.5-27.5-6-40.1L271 294l-21-31.1-37 15.6c-10.1-8.9-22-15.9-35.1-20.4l-4.8-39.9-37.5-2.9-10.8 38.6c-13.7 2.4-26.4 7.6-37.7 14.8l-34.2-21.1-25.6 27.5 23.4 32.6c-6.3 11.7-10.5 24.7-12 38.7L.8 360.2l5.5 37.2 40.1 2c5.4 12.6 13.1 23.9 22.8 33.4l-13 38.1 32.5 18.8 26.5-30.1c6.4 1.8 13.1 2.9 20.1 3.5 6.9.5 13.7.4 20.4-.4l21.6 33.8 35-13.7-7-39.6c11-8 20.4-18 27.7-29.7l40 4.3zm-131.9-29.2l-16.9-.2-8.7-14.6-10.4-13.4 6-15.8 4-16.5 16.2-5.2 15.4-7.1 14.1 9.4 15.1 7.6 1.5 16.9 3.6 16.6-12.4 11.7-10.7 13-16.8-2.4z"/></svg>