<svg xmlns="http://www.w3.org/2000/svg" width="44.25" height="51" viewBox="0 0 44.25 51"><path fill="#2C2C2C" d="M17.732 29.803c-.024-.025-2.27-3.28-3.11-4.39-1.743-2.31-2.646-5.553-2.853-5.8 2.45-1.71 7.242-3.856 7.51-6.94.342-3.978-6.4-12.3-7.694-12.374C8.048.336 1.573 6.324.806 8.133c-1.427 3.74-.72 7.224 1.73 12.263 3.123 7.498 14.72 21.718 21.355 26.185 4.395 3.367 7.602 4.69 11.43 3.893 1.778-.338 8.206-5.61 8.853-9.182.158-1.324-7.315-10.092-11.182-10.44-3.002-.274-5.88 4.214-7.94 6.41-.206-.26-1.963-1.632-3.852-3.804-.928-1.05-2.393-2.435-3.466-3.657z"/></svg>