<?xml version="1.0" encoding="utf-8"?>
<!-- Generator: Adobe Illustrator 18.1.1, SVG Export Plug-In . SVG Version: 6.00 Build 0)  -->
<!DOCTYPE svg PUBLIC "-//W3C//DTD SVG 1.1//EN" "http://www.w3.org/Graphics/SVG/1.1/DTD/svg11.dtd">
<svg version="1.1" id="Calque_1" xmlns="http://www.w3.org/2000/svg" xmlns:xlink="http://www.w3.org/1999/xlink" x="0px" y="0px"
	 viewBox="-256 357.9 83 62.7" enable-background="new -256 357.9 83 62.7" xml:space="preserve">
<path display="none" fill="#2C2C2C" d="M-232.5,404.9c0-4.3-3.5-7.8-7.8-7.8c-4.3,0-7.8,3.5-7.8,7.8v0c0,5.8-3.2,10.8-7.8,13.5l0,0
	c2.3,1.3,5,2.1,7.8,2.1C-239.5,420.6-232.5,413.5-232.5,404.9L-232.5,404.9z"/>
<path display="none" fill="#2C2C2C" d="M-195.6,360.2c-3.1-3.1-8-3.1-11.1,0l-29.6,29.6c5.4,1.4,9.6,5.7,11.1,11.1l29.6-29.6
	C-192.6,368.2-192.6,363.2-195.6,360.2z"/>
<path display="none" fill="#F7B232" d="M-232.5,468.2c0-4.3-3.5-7.8-7.8-7.8c-4.3,0-7.8,3.5-7.8,7.8v0c0,5.8-3.2,10.8-7.8,13.5l0,0
	c2.3,1.3,5,2.1,7.8,2.1C-239.5,483.9-232.5,476.9-232.5,468.2L-232.5,468.2z"/>
<path display="none" fill="#F7B232" d="M-195.6,423.5c-3.1-3.1-8-3.1-11.1,0l-29.6,29.6c5.4,1.4,9.6,5.7,11.1,11.1l29.6-29.6
	C-192.6,431.5-192.6,426.6-195.6,423.5z"/>
<g>
	<path fill="#2C2C2C" d="M-256,372.9v45.7c0,1.1,0.9,2.1,2.1,2.1h9.7v-49.8h-9.7C-255.1,370.8-256,371.8-256,372.9"/>
	<path fill="#2C2C2C" d="M-175.1,370.8h-9.7v49.8h9.7c1.1,0,2.1-0.9,2.1-2.1v-45.7C-173,371.8-173.9,370.8-175.1,370.8"/>
	<path fill="#2C2C2C" d="M-195.6,360c0-1.1-0.9-2.1-2.1-2.1h-33.7c-1.1,0-2.1,0.9-2.1,2.1v10.9h-8.4v49.8h54.6v-49.8h-8.4
		L-195.6,360L-195.6,360z M-201.3,370.8h-26.5v-7.3h26.5L-201.3,370.8L-201.3,370.8z"/>
</g>
</svg>
