<?xml version="1.0" encoding="utf-8"?>
<!-- Generator: Adobe Illustrator 16.0.0, SVG Export Plug-In . SVG Version: 6.00 Build 0)  -->
<!DOCTYPE svg PUBLIC "-//W3C//DTD SVG 1.1//EN" "http://www.w3.org/Graphics/SVG/1.1/DTD/svg11.dtd">
<svg version="1.1" id="Calque_1" xmlns="http://www.w3.org/2000/svg" xmlns:xlink="http://www.w3.org/1999/xlink" x="0px" y="0px"
	 width="288.667px" height="578.333px" viewBox="0 0 288.667 578.333" enable-background="new 0 0 288.667 578.333"
	 xml:space="preserve">
<path fill="none" stroke="#000000" stroke-width="2.8317" stroke-miterlimit="10" d="M144.667,2.318c78.978,0,143,64.022,143,143
	s-64.022,143-143,143s-143-64.022-143-143S65.689,2.318,144.667,2.318z"/>
<path d="M169.193,194.596v-53.964l-16.718-4.181v58.145H169.193z M177.556,138.158v56.438h16.723V129.33l-8.402-5.037
	L177.556,138.158z M102.307,164.615v29.981h16.722v-40.795l-13.768,13.768L102.307,164.615z M127.39,194.596h16.722v-60.235
	l-4.515-1.127L127.39,145.44V194.596z M137.032,123.973l34.155,8.535l11.824-19.697l10.716,6.432l0.552-33.339l-29.16,16.186
	l10.717,6.43l-8.633,14.389l-32.734-8.188l-35.116,35.116l5.908,5.908L137.032,123.973z M211,202.955v8.363H77.224V77.542h8.361
	v125.414L211,202.955L211,202.955z"/>
<path fill="#F7B232" stroke="#000000" stroke-width="2.8317" stroke-miterlimit="10" d="M144.667,291.333
	c78.978,0,143,64.022,143,143c0,78.98-64.022,143-143,143s-143-64.02-143-143C1.667,355.356,65.689,291.333,144.667,291.333z"/>
<path d="M169.193,483.612v-53.965l-16.718-4.182v58.146H169.193z M177.556,427.174v56.438h16.723v-65.266l-8.402-5.037
	L177.556,427.174z M102.307,453.629v29.982h16.722v-40.795l-13.768,13.768L102.307,453.629z M127.39,483.612h16.722v-60.236
	l-4.515-1.127l-12.207,12.207V483.612z M137.032,412.988l34.155,8.534l11.824-19.695l10.716,6.432l0.552-33.34l-29.16,16.187
	l10.717,6.431l-8.633,14.389l-32.734-8.188l-35.116,35.117l5.908,5.906L137.032,412.988z M211,491.971v8.361H77.224V366.557h8.361
	v125.414H211z"/>
</svg>
