<?xml version="1.0" encoding="utf-8"?>
<!-- Generator: Adobe Illustrator 18.1.1, SVG Export Plug-In . SVG Version: 6.00 Build 0)  -->
<!DOCTYPE svg PUBLIC "-//W3C//DTD SVG 1.1//EN" "http://www.w3.org/Graphics/SVG/1.1/DTD/svg11.dtd">
<svg version="1.1" id="Calque_1" xmlns="http://www.w3.org/2000/svg" xmlns:xlink="http://www.w3.org/1999/xlink" x="0px" y="0px"
	 viewBox="-266 357.9 63 62.7" enable-background="new -266 357.9 63 62.7" xml:space="preserve">
<path fill="#2C2C2C" d="M-242.5,404.9c0-4.3-3.5-7.8-7.8-7.8c-4.3,0-7.8,3.5-7.8,7.8v0c0,5.8-3.2,10.8-7.8,13.5l0,0
	c2.3,1.3,5,2.1,7.8,2.1C-249.5,420.6-242.5,413.5-242.5,404.9L-242.5,404.9z"/>
<path fill="#2C2C2C" d="M-205.6,360.2c-3.1-3.1-8-3.1-11.1,0l-29.6,29.6c5.4,1.4,9.6,5.7,11.1,11.1l29.6-29.6
	C-202.6,368.2-202.6,363.2-205.6,360.2z"/>
</svg>
