<?xml version="1.0" encoding="utf-8"?>
<!-- Generator: Adobe Illustrator 18.1.1, SVG Export Plug-In . SVG Version: 6.00 Build 0)  -->
<svg version="1.1" id="Calque_1" xmlns="http://www.w3.org/2000/svg" xmlns:xlink="http://www.w3.org/1999/xlink" x="0px" y="0px"
	 viewBox="0 0 595.3 841.9" enable-background="new 0 0 595.3 841.9" xml:space="preserve">
<path d="M596.1,489.8l-41.2-24.2c1.4-16.6-0.7-32.8-5.5-47.8l34.5-32.9l-23.8-37.7l-44.5,17.1c-11.6-10.8-25.5-19.6-40.8-25.4
	c0,0,0,0,0,0l-4.2-47.5l-44.3-4.9l-14.4,45.5c-16.3,2.4-31.6,7.9-45.3,16c0,0,0,0,0,0l-39.8-26.3l-31.4,31.6l26.6,39.6
	c-8,13.7-13.4,28.9-15.7,45.5l-45.5,14.7l5.1,44.3l47.5,3.9c0,0,0,0,0,0c5.9,15.1,14.6,29,25.7,40.7l-16.8,44.6l37.8,23.6l32.7-34.8
	c7.6,2.4,15.4,4,23.6,5c8.2,0.9,16.3,1,24.2,0.3l24.4,41l42-14.8l-6.8-47.2c13.3-9,24.9-20.6,33.9-34.2v0l47.2,6.5L596.1,489.8z
	 M426.1,492.3l-20.1-0.9l-9.7-17.6l-11.8-16.3l7.7-18.6l5.4-19.4l19.3-5.6l18.6-7.8l16.4,11.7l17.7,9.5l1,20.1l3.6,19.8l-15.1,13.4
	L446,495.8L426.1,492.3z"/>
<path d="M268.6,201l-29.2,10.5l4.2,28.7l31,1.6v0c4.1,9.7,10.1,18.5,17.5,25.9l-10,29.3l25,14.6l20.6-23.2h0
	c5,1.4,10.1,2.4,15.4,2.7c5.4,0.4,10.5,0.3,15.7-0.3h0l16.7,26.1l27-10.5l-5.3-30.5c8.5-6.1,15.7-13.9,21.4-22.9c0,0,0,0,0,0
	l30.8,3.2l8.6-27.7l-27.2-14.9c0,0,0,0,0,0c0.5-10.9-1.1-21.2-4.5-30.8c0,0,0,0,0,0l21.7-22.1l-16.2-24l-28.6,12
	c-7.8-6.8-16.9-12.3-27-15.7l-3.7-30.8l-28.9-2.3l-8.4,29.8c-10.5,1.8-20.4,5.8-29.2,11.2c0,0,0,0,0,0l-26.3-16.3L259.8,146
	l18.1,25.2v0C273,180.2,269.7,190.3,268.6,201z M324.5,199.6l3.1-12.7l12.5-4l11.9-5.5l10.8,7.3l11.7,5.9l1.1,13l2.7,12.8l-9.5,9
	l-8.3,10.1l-12.9-1.8l-13.1-0.2l-6.7-11.3l-8-10.4L324.5,199.6z"/>
<path d="M273,417.8l11.1-35.9l-35.3-19.2c0,0,0,0,0,0c0.6-14-1.5-27.5-6-40.1l28.2-28.6L250,262.9l-37,15.6
	c-10.1-8.9-22-15.9-35.1-20.4l-4.8-39.9l-37.5-2.9l-10.8,38.6c0,0,0,0,0,0c-13.7,2.4-26.4,7.6-37.7,14.8l-34.2-21.1l-25.6,27.5
	l23.4,32.6c-6.3,11.7-10.5,24.7-12,38.7L0.8,360.2l5.5,37.2l40.1,2c0,0,0,0,0,0c5.4,12.6,13.1,23.9,22.8,33.4l0,0l-13,38.1
	l32.5,18.8l26.5-30.1c6.4,1.8,13.1,2.9,20.1,3.5c6.9,0.5,13.7,0.4,20.4-0.4c0,0,0,0,0,0l21.6,33.8l35-13.7l-7-39.6
	c11-8,20.4-18,27.7-29.7c0,0,0,0,0,0L273,417.8z M141.1,388.6l-16.9-0.2l-8.7-14.6l-10.4-13.4l6-15.8l4-16.5l16.2-5.2l15.4-7.1
	l14.1,9.4l15.1,7.6l1.5,16.9l3.6,16.6l-12.4,11.7L157.9,391L141.1,388.6z"/>
</svg>
