<?xml version="1.0" encoding="utf-8"?>
<!-- Generator: Adobe Illustrator 17.1.0, SVG Export Plug-In . SVG Version: 6.00 Build 0)  -->
<!DOCTYPE svg PUBLIC "-//W3C//DTD SVG 1.1//EN" "http://www.w3.org/Graphics/SVG/1.1/DTD/svg11.dtd">
<svg version="1.1" id="Calque_1" xmlns="http://www.w3.org/2000/svg" xmlns:xlink="http://www.w3.org/1999/xlink" x="0px" y="0px"
	 viewBox="0 0 103.7 122.1" enable-background="new 0 0 103.7 122.1" xml:space="preserve">
<g enable-background="new    ">
	<path fill="#2C2C2C" d="M8.8,51.3h1.8l7,17h-2.3l-2-5H6.1l-2,5H1.8L8.8,51.3z M12.8,61.7l-3.1-7.9l-3.2,7.9H12.8z"/>
	<path fill="#2C2C2C" d="M31.6,68.6c-1,0-2-0.3-2.7-0.8c-0.8-0.5-1.4-1.2-1.9-1.9v7.6h-2.1V55.8h1.9v2.4c0.5-0.8,1.1-1.4,1.9-1.9
		c0.8-0.5,1.7-0.7,2.6-0.7c0.9,0,1.7,0.2,2.4,0.5c0.7,0.4,1.3,0.8,1.9,1.4c0.5,0.6,0.9,1.3,1.2,2.1c0.3,0.8,0.4,1.6,0.4,2.4
		c0,0.9-0.1,1.7-0.4,2.5s-0.7,1.5-1.2,2.1c-0.5,0.6-1.1,1-1.8,1.4C33.2,68.4,32.5,68.6,31.6,68.6z M31,66.8c0.6,0,1.2-0.1,1.7-0.4
		c0.5-0.3,0.9-0.6,1.3-1.1c0.4-0.4,0.6-0.9,0.8-1.5c0.2-0.6,0.3-1.1,0.3-1.7c0-0.6-0.1-1.2-0.3-1.8s-0.5-1.1-0.9-1.5
		c-0.4-0.4-0.8-0.8-1.4-1s-1.1-0.4-1.7-0.4c-0.4,0-0.8,0.1-1.2,0.2c-0.4,0.2-0.8,0.4-1.2,0.6s-0.7,0.5-0.9,0.9
		c-0.3,0.3-0.4,0.7-0.5,1.1v3.6c0.2,0.4,0.4,0.8,0.7,1.2s0.6,0.7,0.9,0.9c0.4,0.3,0.7,0.5,1.1,0.6C30.1,66.7,30.5,66.8,31,66.8z"/>
	<path fill="#2C2C2C" d="M46.5,57.7c-1.1,0-2,0.3-2.8,0.8c-0.8,0.5-1.4,1.2-1.7,2.1v7.7h-2.1V55.8h2v2.9c0.4-0.9,1-1.6,1.7-2.1
		s1.5-0.8,2.3-0.9c0.2,0,0.3,0,0.4,0c0.1,0,0.2,0,0.3,0V57.7z"/>
	<path fill="#2C2C2C" d="M53.7,68.6c-0.9,0-1.8-0.2-2.6-0.5c-0.8-0.4-1.4-0.8-2-1.4c-0.6-0.6-1-1.3-1.3-2.1s-0.5-1.6-0.5-2.5
		c0-0.9,0.2-1.7,0.5-2.5c0.3-0.8,0.7-1.5,1.3-2.1c0.6-0.6,1.2-1.1,2-1.4c0.8-0.4,1.6-0.5,2.6-0.5c0.9,0,1.8,0.2,2.6,0.5
		s1.5,0.8,2,1.4s1,1.3,1.3,2.1c0.3,0.8,0.5,1.6,0.5,2.5c0,0.9-0.2,1.7-0.5,2.5c-0.3,0.8-0.7,1.5-1.3,2.1c-0.6,0.6-1.2,1.1-2,1.4
		C55.5,68.4,54.7,68.6,53.7,68.6z M49.6,62.1c0,0.7,0.1,1.3,0.3,1.8c0.2,0.6,0.5,1,0.9,1.5s0.8,0.7,1.3,1c0.5,0.2,1,0.4,1.6,0.4
		c0.6,0,1.1-0.1,1.6-0.4c0.5-0.2,0.9-0.6,1.3-1c0.4-0.4,0.7-0.9,0.9-1.5c0.2-0.6,0.3-1.2,0.3-1.8c0-0.6-0.1-1.2-0.3-1.8
		c-0.2-0.6-0.5-1.1-0.9-1.5c-0.4-0.4-0.8-0.8-1.3-1c-0.5-0.2-1-0.4-1.6-0.4c-0.6,0-1.1,0.1-1.6,0.4c-0.5,0.2-0.9,0.6-1.3,1
		s-0.7,0.9-0.9,1.5C49.7,60.9,49.6,61.5,49.6,62.1z"/>
	<path fill="#2C2C2C" d="M69.4,68.6c-1,0-2-0.3-2.7-0.8c-0.8-0.5-1.4-1.2-1.9-1.9v7.6h-2.1V55.8h1.9v2.4c0.5-0.8,1.1-1.4,1.9-1.9
		c0.8-0.5,1.7-0.7,2.6-0.7c0.9,0,1.7,0.2,2.4,0.5c0.7,0.4,1.3,0.8,1.9,1.4c0.5,0.6,0.9,1.3,1.2,2.1s0.4,1.6,0.4,2.4
		c0,0.9-0.1,1.7-0.4,2.5c-0.3,0.8-0.7,1.5-1.2,2.1s-1.1,1-1.8,1.4C71,68.4,70.2,68.6,69.4,68.6z M68.7,66.8c0.6,0,1.2-0.1,1.7-0.4
		c0.5-0.3,0.9-0.6,1.3-1.1c0.4-0.4,0.6-0.9,0.8-1.5c0.2-0.6,0.3-1.1,0.3-1.7c0-0.6-0.1-1.2-0.3-1.8c-0.2-0.6-0.5-1.1-0.9-1.5
		s-0.8-0.8-1.4-1c-0.5-0.2-1.1-0.4-1.7-0.4c-0.4,0-0.8,0.1-1.2,0.2c-0.4,0.2-0.8,0.4-1.2,0.6c-0.4,0.2-0.7,0.5-0.9,0.9
		c-0.3,0.3-0.4,0.7-0.5,1.1v3.6c0.2,0.4,0.4,0.8,0.7,1.2c0.3,0.4,0.6,0.7,0.9,0.9c0.4,0.3,0.7,0.5,1.1,0.6
		C67.9,66.7,68.3,66.8,68.7,66.8z"/>
	<path fill="#2C2C2C" d="M83.1,68.6c-0.9,0-1.8-0.2-2.6-0.5s-1.4-0.8-2-1.4s-1-1.3-1.3-2.1s-0.5-1.6-0.5-2.5c0-0.9,0.2-1.7,0.5-2.5
		c0.3-0.8,0.7-1.5,1.3-2.1s1.2-1.1,2-1.4c0.8-0.4,1.6-0.5,2.6-0.5s1.8,0.2,2.6,0.5c0.8,0.4,1.5,0.8,2,1.4c0.6,0.6,1,1.3,1.3,2.1
		c0.3,0.8,0.5,1.6,0.5,2.5c0,0.9-0.2,1.7-0.5,2.5s-0.7,1.5-1.3,2.1c-0.6,0.6-1.2,1.1-2,1.4C84.9,68.4,84,68.6,83.1,68.6z M78.9,62.1
		c0,0.7,0.1,1.3,0.3,1.8c0.2,0.6,0.5,1,0.9,1.5s0.8,0.7,1.3,1c0.5,0.2,1,0.4,1.6,0.4s1.1-0.1,1.6-0.4c0.5-0.2,0.9-0.6,1.3-1
		c0.4-0.4,0.7-0.9,0.9-1.5c0.2-0.6,0.3-1.2,0.3-1.8c0-0.6-0.1-1.2-0.3-1.8c-0.2-0.6-0.5-1.1-0.9-1.5c-0.4-0.4-0.8-0.8-1.3-1
		c-0.5-0.2-1-0.4-1.6-0.4s-1.1,0.1-1.6,0.4s-0.9,0.6-1.3,1s-0.7,0.9-0.9,1.5S78.9,61.5,78.9,62.1z"/>
	<path fill="#2C2C2C" d="M96.3,68.6c-1,0-2-0.2-3-0.5c-1-0.3-1.8-0.8-2.5-1.4l0.9-1.4c0.7,0.6,1.5,1,2.2,1.3
		c0.7,0.3,1.5,0.4,2.3,0.4c0.9,0,1.6-0.2,2.2-0.5c0.5-0.4,0.8-0.9,0.8-1.5c0-0.3-0.1-0.6-0.2-0.8c-0.1-0.2-0.4-0.4-0.6-0.6
		c-0.3-0.2-0.7-0.3-1.1-0.4s-1-0.3-1.6-0.4c-0.8-0.2-1.4-0.4-1.9-0.6c-0.5-0.2-1-0.4-1.3-0.6c-0.4-0.2-0.6-0.5-0.8-0.9
		s-0.2-0.8-0.2-1.2c0-0.6,0.1-1.2,0.4-1.7c0.2-0.5,0.6-0.9,1-1.2s0.9-0.6,1.5-0.7c0.6-0.2,1.2-0.3,1.9-0.3c0.9,0,1.8,0.2,2.6,0.5
		c0.8,0.3,1.5,0.7,2.1,1.2l-1,1.3c-0.5-0.5-1.1-0.8-1.8-1c-0.7-0.2-1.3-0.3-2-0.3c-0.8,0-1.4,0.2-2,0.5c-0.5,0.3-0.8,0.9-0.8,1.6
		c0,0.3,0.1,0.5,0.2,0.7c0.1,0.2,0.3,0.4,0.5,0.5c0.2,0.1,0.5,0.3,0.9,0.4c0.4,0.1,0.8,0.2,1.4,0.4c0.8,0.2,1.6,0.4,2.2,0.6
		c0.6,0.2,1.1,0.4,1.5,0.7s0.7,0.6,0.9,1s0.3,0.8,0.3,1.3c0,1.2-0.4,2.1-1.3,2.8C99.1,68.2,97.9,68.6,96.3,68.6z"/>
</g>
<g>
	<polygon fill="#2C2C2C" points="32,90.5 33.8,90.5 42.1,71.9 40.3,71.9 	"/>
	<polygon fill="#2C2C2C" points="73.2,2.3 71.4,2.3 48.3,53.9 50.1,53.9 	"/>
	<polygon fill="#2C2C2C" points="67.4,32 57.8,53.9 61.3,53.9 70.2,32 	"/>
	<polygon fill="#2C2C2C" points="28.7,120 32.7,120 54,71.9 49.9,71.9 	"/>
</g>
</svg>
