<?xml version="1.0" encoding="utf-8"?>
<!-- Generator: Adobe Illustrator 16.0.0, SVG Export Plug-In . SVG Version: 6.00 Build 0)  -->
<!DOCTYPE svg PUBLIC "-//W3C//DTD SVG 1.1//EN" "http://www.w3.org/Graphics/SVG/1.1/DTD/svg11.dtd">
<svg version="1.1" id="Calque_1" xmlns="http://www.w3.org/2000/svg" xmlns:xlink="http://www.w3.org/1999/xlink" x="0px" y="0px"
	 width="75px" height="75px" viewBox="0 0 75 75" enable-background="new 0 0 75 75" xml:space="preserve">
<path fill="#2C2C2C" d="M51.562,65.625V35.371l-9.373-2.344v32.598H51.562z M56.25,33.984v31.641h9.375v-36.59l-4.711-2.824
	L56.25,33.984z M14.062,48.816v16.809h9.376V42.754l-7.719,7.719L14.062,48.816z M28.125,65.625H37.5v-33.77l-2.531-0.632
	l-6.844,6.843V65.625z M33.531,26.031l19.149,4.785l6.629-11.043l6.008,3.606l0.31-18.691l-16.349,9.074l6.009,3.605l-4.841,8.067
	l-18.35-4.59L12.406,40.531l3.313,3.312L33.531,26.031z M75,70.312V75H0V0h4.688v70.312H75z"/>
</svg>
