<?xml version="1.0" encoding="utf-8"?>
<!-- Generator: Adobe Illustrator 16.0.0, SVG Export Plug-In . SVG Version: 6.00 Build 0)  -->
<!DOCTYPE svg PUBLIC "-//W3C//DTD SVG 1.1//EN" "http://www.w3.org/Graphics/SVG/1.1/DTD/svg11.dtd">
<svg version="1.1" id="Calque_1" xmlns="http://www.w3.org/2000/svg" xmlns:xlink="http://www.w3.org/1999/xlink" x="0px" y="0px"
	 width="60.667px" height="50.667px" viewBox="0 0 60.667 50.667" enable-background="new 0 0 60.667 50.667" xml:space="preserve">
<g>
	<g>
		<polygon fill="#2C2C2C" points="5.692,50.387 13.963,50.387 13.963,19.463 0.236,19.463 		"/>
		<path fill="#2C2C2C" d="M60.432,24.258c0-3.307-2.646-3.807-2.646-3.807H40.587c0,0-1.16-1.486-0.168-4.629
			s1.16-7.771,0.332-9.756c-0.826-1.984-2.315-5.624-6.119-5.787c-2.231,0.34-2.978,2.146-2.978,2.146v7.281
			c0,0-7.108,12.896-8.1,13.06c-0.995,0.167-4.954,0.664-4.954,0.664v22.821h1.15c0,0,8.432,4.133,10.084,4.133
			c1.656,0,20.838,0,20.838,0s2.977-0.662,2.977-3.967c0-2.148-1.818-3.477-1.818-3.477s4.467-0.328,4.467-4.132
			c0-1.562-2.151-2.978-2.151-2.978s4.136-0.828,3.972-4.299c-0.332-2.148-1.49-3.309-1.49-3.309S60.432,27.564,60.432,24.258z"/>
	</g>
</g>
</svg>
